<svg width="508" height="416" viewBox="0 0 508 416" fill="none" xmlns="http://www.w3.org/2000/svg">
<g clip-path="url(#clip0)">
<path d="M403.88 281.8C403.856 285.218 402.481 288.488 400.055 290.895C397.628 293.303 394.348 294.653 390.93 294.65H116.8C113.373 294.666 110.08 293.322 107.643 290.913C105.206 288.504 103.824 285.227 103.8 281.8V12.86C103.837 9.43651 105.223 6.16576 107.657 3.75799C110.091 1.35021 113.376 -0.000194476 116.8 4.06321e-06H390.93C394.35 -0.00270411 397.631 1.34846 400.058 3.75819C402.485 6.16792 403.859 9.44025 403.88 12.86V281.8Z" fill="#724F31"/>
<path opacity="0.2" d="M403.88 69.14L301.14 55.91L403.88 83.48V69.14Z" fill="#004D40"/>
<path opacity="0.2" d="M258.82 14L103.24 83.49L275.24 20.9V20.73C272.24 14.25 264.85 11.23 258.87 14.02L258.82 14Z" fill="#004D40"/>
<path opacity="0.2" d="M390.93 4.06321e-06H116.8C113.376 -0.000194476 110.091 1.35021 107.657 3.75799C105.223 6.16576 103.837 9.43651 103.8 12.86V15.74C103.837 12.3165 105.223 9.04576 107.657 6.63799C110.091 4.23021 113.376 2.87981 116.8 2.88H390.93C394.35 2.8773 397.631 4.22846 400.058 6.63819C402.485 9.04792 403.859 12.3203 403.88 15.74V12.86C403.859 9.44025 402.485 6.16792 400.058 3.75819C397.631 1.34846 394.35 -0.00270411 390.93 4.06321e-06V4.06321e-06Z" fill="white"/>
<path d="M170.38 273.53C168.52 280.44 172.22 287.53 178.59 289.19L432.49 357.47C438.86 359.18 445.59 354.92 447.44 348.02L507.25 124.8C509.1 117.89 505.4 110.8 499.03 109.14L245.13 40.85C238.76 39.15 232.03 43.4 230.19 50.31L170.38 273.53Z" fill="#C29670"/>
<path opacity="0.2" d="M450.04 204.47L463.39 285.6L450.04 335.46V204.47Z" fill="#3E2723"/>
<path opacity="0.2" d="M302.34 59.22L314.31 62.44L321.73 112.51L302.34 59.22Z" fill="#3E2723"/>
<path opacity="0.2" d="M499 109.14L245.14 40.85C238.77 39.15 232.04 43.4 230.2 50.31L170.38 273.53C170.28 273.91 170.26 274.28 170.19 274.66L229.55 53.12C231.41 46.22 238.13 41.96 244.5 43.67L498.4 112C504.4 113.61 507.99 120 506.81 126.54L507.26 124.85C509.11 117.94 505.41 110.85 499.04 109.19L499 109.14Z" fill="white"/>
<path d="M370.34 246C372.78 252.72 369.71 260.06 363.52 262.32L95.5999 359.87C89.3999 362.12 82.3299 358.47 79.8899 351.75L0.83986 134.59C-1.60014 127.87 1.46986 120.53 7.65986 118.28L275.59 20.76C281.79 18.51 288.85 22.16 291.3 28.88L370.34 246Z" fill="#D9BDA5"/>
<path opacity="0.2" d="M1.85986 137.33C-0.580142 130.61 2.48986 123.27 8.67986 121.01L276.6 23.49C282.73 21.26 289.7 24.82 292.22 31.4L291.3 28.87C288.85 22.15 281.78 18.5 275.59 20.76L7.65986 118.28C1.45986 120.53 -1.61014 127.87 0.839858 134.59L79.8899 351.75C79.9191 351.822 79.9525 351.892 79.9899 351.96L1.85986 137.33Z" fill="white"/>
<path d="M450 402.44C450 405.888 448.631 409.194 446.193 411.632C443.755 414.07 440.448 415.44 437 415.44H70.6802C67.2324 415.44 63.9258 414.07 61.4878 411.632C59.0498 409.194 57.6802 405.888 57.6802 402.44V125.49C57.6802 122.042 59.0498 118.736 61.4878 116.298C63.9258 113.86 67.2324 112.49 70.6802 112.49H437.06C440.508 112.49 443.815 113.86 446.253 116.298C448.691 118.736 450.06 122.042 450.06 125.49L450 402.44Z" fill="#FAFAFA"/>
<path opacity="0.2" d="M437.06 412.54H70.6802C67.2324 412.54 63.9258 411.17 61.4878 408.732C59.0498 406.294 57.6802 402.988 57.6802 399.54V402.43C57.6802 405.878 59.0498 409.184 61.4878 411.622C63.9258 414.06 67.2324 415.43 70.6802 415.43H437.06C440.508 415.43 443.815 414.06 446.253 411.622C448.691 409.184 450.06 405.878 450.06 402.43V399.54C450.06 402.988 448.691 406.294 446.253 408.732C443.815 411.17 440.508 412.54 437.06 412.54Z" fill="#1A237E"/>
<path opacity="0.2" d="M70.6802 115.39H437.06C440.508 115.39 443.815 116.76 446.253 119.198C448.691 121.636 450.06 124.942 450.06 128.39V125.5C450.06 122.052 448.691 118.746 446.253 116.308C443.815 113.87 440.508 112.5 437.06 112.5H70.6802C67.2324 112.5 63.9258 113.87 61.4878 116.308C59.0498 118.746 57.6802 122.052 57.6802 125.5V128.39C57.6802 124.942 59.0498 121.636 61.4878 119.198C63.9258 116.76 67.2324 115.39 70.6802 115.39V115.39Z" fill="white"/>
<path d="M499 109.14L403.88 83.55V12.86C403.859 9.44025 402.485 6.16792 400.058 3.75819C397.632 1.34846 394.35 -0.00270411 390.93 4.06321e-06H116.8C113.376 -0.000194476 110.091 1.35021 107.657 3.75799C105.223 6.16576 103.837 9.43651 103.8 12.86V83.27L7.61005 118.27C1.41005 120.52 -1.65995 127.86 0.790053 134.58L57.7001 290.8V402.44C57.7001 405.888 59.0697 409.194 61.5077 411.632C63.9456 414.07 67.2522 415.44 70.7001 415.44H437.06C440.508 415.44 443.814 414.07 446.252 411.632C448.69 409.194 450.06 405.888 450.06 402.44V338.35L507.26 124.8C509.11 117.89 505.41 110.8 499.04 109.14H499Z" fill="url(#paint0_radial)"/>
<path d="M255.468 173.3C255.802 173.3 256.035 173.5 256.168 173.9C256.302 174.233 256.268 174.533 256.068 174.8C252.668 178.133 249.635 181.867 246.968 186C244.368 190.067 242.168 194.267 240.368 198.6C238.568 202.933 237.202 207.233 236.268 211.5C235.402 215.7 234.968 219.567 234.968 223.1C234.968 226.7 235.402 229.533 236.268 231.6C237.135 233.6 238.335 234.6 239.868 234.6C241.202 234.6 242.468 234.1 243.668 233.1C244.935 232.1 246.168 230.7 247.368 228.9C247.568 228.767 247.768 228.767 247.968 228.9C248.235 229.033 248.335 229.267 248.268 229.6C247.535 230.733 246.702 231.867 245.768 233C244.835 234.067 243.802 235.067 242.668 236C241.602 236.867 240.502 237.6 239.368 238.2C238.235 238.733 237.135 239 236.068 239C233.602 239 231.768 237.867 230.568 235.6C229.368 233.333 228.768 230.3 228.768 226.5C228.768 223.367 229.135 219.9 229.868 216.1C230.602 212.233 231.668 208.3 233.068 204.3C234.535 200.3 236.268 196.4 238.268 192.6C240.335 188.733 242.668 185.267 245.268 182.2C241.268 185.2 237.135 188.8 232.868 193C228.602 197.2 224.468 201.7 220.468 206.5C216.535 211.233 212.835 216.133 209.368 221.2C205.968 226.267 203.135 231.2 200.868 236C200.735 236.267 200.468 236.6 200.068 237C199.668 237.333 199.202 237.667 198.668 238C198.135 238.267 197.602 238.5 197.068 238.7C196.535 238.9 196.068 239 195.668 239C195.135 239 194.935 238.767 195.068 238.3C196.335 227.967 198.135 218.767 200.468 210.7C202.868 202.633 205.668 195.2 208.868 188.4C203.535 196.4 198.302 203.567 193.168 209.9C188.102 216.167 182.968 221.467 177.768 225.8C172.635 230.067 167.402 233.333 162.068 235.6C156.735 237.867 151.235 239 145.568 239C139.302 239 134.468 237.433 131.068 234.3C127.735 231.167 126.068 227.033 126.068 221.9C126.068 218.5 127.035 215.467 128.968 212.8C130.902 210.067 133.568 208.067 136.968 206.8C137.235 206.667 137.402 206.733 137.468 207C137.602 207.267 137.602 207.5 137.468 207.7C135.402 209.033 133.935 210.567 133.068 212.3C132.268 214.033 131.868 216.3 131.868 219.1C131.868 221.3 132.235 223.4 132.968 225.4C133.702 227.333 134.768 229.067 136.168 230.6C137.568 232.067 139.335 233.233 141.468 234.1C143.602 234.967 146.068 235.4 148.868 235.4C154.668 235.4 160.202 234.067 165.468 231.4C170.802 228.733 175.968 225.1 180.968 220.5C186.035 215.833 190.968 210.367 195.768 204.1C200.635 197.833 205.468 191.1 210.268 183.9C205.602 182.3 200.702 180.967 195.568 179.9C190.502 178.767 185.602 178.2 180.868 178.2C175.468 178.2 171.302 179.733 168.368 182.8C165.435 185.8 163.635 189.867 162.968 195C162.835 195.333 162.635 195.467 162.368 195.4C162.168 195.333 162.035 195.133 161.968 194.8C162.702 188.2 165.102 183.167 169.168 179.7C173.235 176.233 178.535 174.5 185.068 174.5C187.735 174.5 190.568 174.7 193.568 175.1C196.568 175.433 199.502 175.9 202.368 176.5C205.302 177.1 208.068 177.767 210.668 178.5C213.335 179.167 215.668 179.833 217.668 180.5C217.935 180.433 218.268 180.333 218.668 180.2C218.935 180.267 219.102 180.433 219.168 180.7C219.235 180.967 219.202 181.2 219.068 181.4C218.135 181.933 217.335 182.667 216.668 183.6C216.068 184.467 215.402 185.567 214.668 186.9C211.335 193.633 208.668 200.667 206.668 208C204.735 215.267 203.135 222.633 201.868 230.1C204.935 224.567 208.535 219.033 212.668 213.5C216.868 207.9 221.335 202.6 226.068 197.6C230.802 192.6 235.668 188 240.668 183.8C245.735 179.6 250.668 176.1 255.468 173.3ZM264.703 209.1C264.503 209.3 264.269 209.3 264.003 209.1C263.803 208.9 263.636 208.633 263.503 208.3C263.369 207.9 263.303 207.5 263.303 207.1C263.303 206.633 263.403 206.233 263.603 205.9C264.336 204.967 265.403 203.8 266.803 202.4C268.269 200.933 269.769 199.7 271.303 198.7C271.436 198.633 271.603 198.7 271.803 198.9C272.003 199.033 272.069 199.167 272.003 199.3C270.603 200.567 269.269 202.1 268.003 203.9C266.736 205.633 265.636 207.367 264.703 209.1ZM254.003 220.4C253.803 220.533 253.636 220.5 253.503 220.3C253.369 220.033 253.336 219.8 253.403 219.6C255.869 217.6 259.303 215.533 263.703 213.4C264.236 213.4 264.503 213.7 264.503 214.3C263.636 215.833 262.769 217.5 261.903 219.3C261.103 221.1 260.369 222.9 259.703 224.7C259.103 226.433 258.603 228.133 258.203 229.8C257.803 231.4 257.603 232.733 257.603 233.8C257.603 235.133 258.069 235.8 259.003 235.8C259.736 235.8 260.436 235.5 261.103 234.9C261.836 234.233 262.669 233.4 263.603 232.4C263.736 232.267 263.903 232.3 264.103 232.5C264.303 232.633 264.336 232.867 264.203 233.2C262.736 234.933 261.269 236.333 259.803 237.4C258.403 238.467 257.036 239 255.703 239C253.369 239 252.203 237.9 252.203 235.7C252.203 234.5 252.369 233.1 252.703 231.5C253.103 229.833 253.603 228.167 254.203 226.5C254.869 224.767 255.569 223.1 256.303 221.5C257.103 219.833 257.903 218.4 258.703 217.2C257.969 217.6 257.136 218.1 256.203 218.7C255.336 219.3 254.603 219.867 254.003 220.4ZM279.004 216.3C279.004 217.3 278.904 218.433 278.704 219.7C278.504 220.967 278.238 222.267 277.904 223.6C279.238 220.4 280.704 217.9 282.304 216.1C283.904 214.3 285.638 213.4 287.504 213.4C288.504 213.4 289.271 213.633 289.804 214.1C290.338 214.567 290.604 215.167 290.604 215.9C290.604 216.567 290.338 217.433 289.804 218.5C289.338 219.567 288.938 220.3 288.604 220.7C288.471 220.767 288.338 220.767 288.204 220.7C288.071 220.567 288.004 220.433 288.004 220.3C288.004 219.833 287.804 219.433 287.404 219.1C287.071 218.767 286.538 218.6 285.804 218.6C283.471 218.6 281.338 220.2 279.404 223.4C277.538 226.533 275.804 231.067 274.204 237C274.138 237.333 273.904 237.633 273.504 237.9C273.104 238.1 272.638 238.3 272.104 238.5C271.638 238.633 271.138 238.767 270.604 238.9C270.071 238.967 269.604 239 269.204 239C268.471 239 268.271 238.6 268.604 237.8C269.204 236.4 269.771 234.9 270.304 233.3C270.904 231.633 271.438 229.967 271.904 228.3C272.371 226.633 272.771 225.033 273.104 223.5C273.438 221.9 273.704 220.433 273.904 219.1C274.038 218.1 274.071 217.333 274.004 216.8C274.004 216.267 273.738 216 273.204 216C272.538 216 271.838 216.3 271.104 216.9C270.438 217.433 269.804 218.133 269.204 219C268.938 219.2 268.671 219.233 268.404 219.1C268.204 218.9 268.171 218.667 268.304 218.4C268.704 217.867 269.171 217.333 269.704 216.8C270.304 216.2 270.938 215.667 271.604 215.2C272.338 214.667 273.071 214.233 273.804 213.9C274.604 213.567 275.404 213.4 276.204 213.4C277.271 213.4 278.004 213.667 278.404 214.2C278.804 214.667 279.004 215.367 279.004 216.3ZM316.996 232.7C317.129 232.567 317.296 232.567 317.496 232.7C317.696 232.833 317.762 233.033 317.696 233.3C316.496 235.033 315.162 236.433 313.696 237.5C312.229 238.5 310.829 239 309.496 239C307.962 239 306.962 237.933 306.496 235.8C306.096 233.6 306.329 231 307.196 228C305.396 230.867 303.429 233.333 301.296 235.4C299.229 237.4 297.029 238.6 294.696 239C293.096 239 291.862 238.267 290.996 236.8C290.129 235.333 289.696 233.633 289.696 231.7C289.696 229.5 290.229 227.333 291.296 225.2C292.362 223 293.762 221.033 295.496 219.3C297.296 217.567 299.262 216.167 301.396 215.1C303.596 213.967 305.796 213.4 307.996 213.4C310.329 213.4 312.162 213.967 313.496 215.1C314.162 214.633 314.996 214.233 315.996 213.9C317.062 213.567 317.996 213.4 318.796 213.4C319.062 213.4 319.196 213.567 319.196 213.9C317.662 215.767 316.329 217.833 315.196 220.1C314.129 222.3 313.296 224.433 312.696 226.5C312.096 228.5 311.729 230.3 311.596 231.9C311.462 233.5 311.596 234.6 311.996 235.2C312.329 235.6 312.896 235.733 313.696 235.6C314.496 235.4 315.596 234.433 316.996 232.7ZM297.796 235.3C298.596 235.3 299.562 234.8 300.696 233.8C301.896 232.8 303.129 231.467 304.396 229.8C305.662 228.133 306.896 226.267 308.096 224.2C309.362 222.133 310.462 220.033 311.396 217.9C311.129 217.033 310.496 216.333 309.496 215.8C308.562 215.267 307.462 215 306.196 215C304.662 215 303.229 215.4 301.896 216.2C300.562 216.933 299.396 218 298.396 219.4C297.462 220.733 296.696 222.367 296.096 224.3C295.562 226.167 295.296 228.233 295.296 230.5C295.296 231.967 295.529 233.133 295.996 234C296.529 234.867 297.129 235.3 297.796 235.3ZM339.111 222.4C338.711 222.533 338.511 222.367 338.511 221.9C338.977 220.5 338.877 219.267 338.211 218.2C337.611 217.133 336.477 216.6 334.811 216.6C332.677 216.6 330.944 217.933 329.611 220.6C328.344 223.267 327.711 226.733 327.711 231C327.711 234.133 328.944 235.7 331.411 235.7C332.544 235.7 333.777 235.3 335.111 234.5C336.511 233.633 337.777 232.533 338.911 231.2C339.177 231.067 339.411 231.1 339.611 231.3C339.811 231.5 339.844 231.733 339.711 232C338.044 234.133 336.177 235.833 334.111 237.1C332.044 238.367 329.844 239 327.511 239C326.044 239 324.811 238.5 323.811 237.5C322.811 236.433 322.311 234.967 322.311 233.1C322.311 230.767 322.777 228.433 323.711 226.1C324.711 223.7 325.977 221.567 327.511 219.7C329.044 217.833 330.711 216.333 332.511 215.2C334.311 214 336.077 213.4 337.811 213.4C339.344 213.4 340.544 213.833 341.411 214.7C342.277 215.567 342.711 216.533 342.711 217.6C342.711 218 342.577 218.433 342.311 218.9C342.111 219.367 341.811 219.833 341.411 220.3C341.077 220.767 340.677 221.2 340.211 221.6C339.811 222 339.444 222.267 339.111 222.4ZM387.962 164.7C388.962 164.7 389.762 164.967 390.362 165.5C391.029 165.967 391.462 166.633 391.662 167.5C391.929 168.3 391.962 169.233 391.762 170.3C391.629 171.367 391.262 172.433 390.662 173.5C390.529 173.633 390.362 173.633 390.162 173.5C389.962 173.367 389.829 173.2 389.762 173C389.895 172.2 389.595 171.533 388.862 171C388.195 170.467 387.129 170.2 385.662 170.2C382.929 170.2 380.162 171.233 377.362 173.3C374.629 175.3 371.962 177.967 369.362 181.3C366.762 184.633 364.329 188.467 362.062 192.8C359.795 197.133 357.829 201.6 356.162 206.2C354.495 210.8 353.162 215.367 352.162 219.9C351.229 224.433 350.762 228.567 350.762 232.3C350.762 234.3 351.329 235.3 352.462 235.3C353.262 235.3 354.029 234.967 354.762 234.3C355.562 233.633 356.462 232.633 357.462 231.3C357.662 231.167 357.829 231.2 357.962 231.4C358.162 231.533 358.229 231.733 358.162 232C356.829 234 355.262 235.667 353.462 237C351.662 238.333 350.029 239 348.562 239C347.295 239 346.395 238.633 345.862 237.9C345.395 237.167 345.162 236.233 345.162 235.1C345.162 231.967 345.829 228.067 347.162 223.4C348.495 218.667 350.262 213.7 352.462 208.5C354.729 203.233 357.329 198 360.262 192.8C363.195 187.6 366.229 182.933 369.362 178.8C372.562 174.6 375.762 171.2 378.962 168.6C382.162 166 385.162 164.7 387.962 164.7ZM380.901 218.4C380.901 222.2 375.868 224.8 365.801 226.2C365.735 226.867 365.668 227.533 365.601 228.2C365.601 228.867 365.601 229.567 365.601 230.3C365.601 232.033 366.001 233.367 366.801 234.3C367.601 235.233 368.868 235.7 370.601 235.7C371.868 235.7 373.168 235.333 374.501 234.6C375.835 233.867 376.901 232.933 377.701 231.8C377.968 231.667 378.168 231.733 378.301 232C378.435 232.2 378.468 232.433 378.401 232.7C377.068 234.433 375.368 235.933 373.301 237.2C371.301 238.4 369.135 239 366.801 239C364.468 239 362.768 238.433 361.701 237.3C360.701 236.1 360.201 234.433 360.201 232.3C360.201 230.233 360.635 228.1 361.501 225.9C362.368 223.633 363.468 221.567 364.801 219.7C366.201 217.833 367.768 216.333 369.501 215.2C371.301 214 373.101 213.4 374.901 213.4C376.701 213.4 378.135 213.933 379.201 215C380.335 216 380.901 217.133 380.901 218.4ZM372.201 216C370.668 216 369.335 216.733 368.201 218.2C367.135 219.6 366.401 221.8 366.001 224.8C369.201 224.467 371.568 223.867 373.101 223C374.635 222.067 375.401 220.933 375.401 219.6C375.401 218.6 375.101 217.767 374.501 217.1C373.901 216.367 373.135 216 372.201 216ZM224.996 274.5C227.063 274.5 228.73 275.233 229.996 276.7C231.263 278.1 231.896 279.833 231.896 281.9C231.896 283.233 231.596 284.8 230.996 286.6C230.396 288.333 229.763 289.767 229.096 290.9C228.83 291.1 228.53 291.133 228.196 291C227.93 290.867 227.83 290.633 227.896 290.3C228.296 289.1 228.463 287.9 228.396 286.7C228.33 285.5 227.996 284.4 227.396 283.4C226.796 282.4 225.863 281.6 224.596 281C223.396 280.333 221.863 280 219.996 280C217.463 280 215.263 280.467 213.396 281.4C211.596 282.267 209.93 283.833 208.396 286.1C206.863 288.3 205.43 291.267 204.096 295C202.763 298.733 201.396 303.4 199.996 309C197.663 317.933 194.43 324.833 190.296 329.7C193.296 330.833 196.43 331.867 199.696 332.8C203.03 333.667 206.696 334.1 210.696 334.1C214.03 334.1 216.563 333.5 218.296 332.3C220.03 331.1 221.463 329.367 222.596 327.1C222.863 326.9 223.096 326.9 223.296 327.1C223.563 327.233 223.663 327.5 223.596 327.9C221.996 331.5 219.863 334.267 217.196 336.2C214.53 338.067 210.963 339 206.496 339C202.563 339 198.963 338.433 195.696 337.3C192.496 336.1 189.363 334.833 186.296 333.5C181.43 337.167 175.463 339 168.396 339C165.73 339 163.73 338.533 162.396 337.6C161.063 336.667 160.396 335.5 160.396 334.1C160.396 333.233 160.696 332.3 161.296 331.3C161.963 330.3 162.863 329.367 163.996 328.5C165.13 327.633 166.463 326.9 167.996 326.3C169.596 325.7 171.363 325.4 173.296 325.4C175.763 325.4 178.163 325.733 180.496 326.4C182.896 327 185.33 327.767 187.796 328.7C188.93 326.833 190.03 324.5 191.096 321.7C192.163 318.9 193.23 315.467 194.296 311.4C195.83 305.667 197.663 300.533 199.796 296C201.93 291.4 204.296 287.533 206.896 284.4C209.563 281.2 212.396 278.767 215.396 277.1C218.463 275.367 221.663 274.5 224.996 274.5ZM172.896 336.4C175.296 336.4 177.43 336.167 179.296 335.7C181.23 335.167 182.963 334.167 184.496 332.7C182.03 331.633 179.53 330.7 176.996 329.9C174.463 329.1 171.763 328.7 168.896 328.7C165.83 328.7 164.296 329.733 164.296 331.8C164.296 333.133 165.03 334.233 166.496 335.1C168.03 335.967 170.163 336.4 172.896 336.4ZM240.777 309.1C240.577 309.3 240.344 309.3 240.077 309.1C239.877 308.9 239.71 308.633 239.577 308.3C239.444 307.9 239.377 307.5 239.377 307.1C239.377 306.633 239.477 306.233 239.677 305.9C240.41 304.967 241.477 303.8 242.877 302.4C244.344 300.933 245.844 299.7 247.377 298.7C247.51 298.633 247.677 298.7 247.877 298.9C248.077 299.033 248.144 299.167 248.077 299.3C246.677 300.567 245.344 302.1 244.077 303.9C242.81 305.633 241.71 307.367 240.777 309.1ZM230.077 320.4C229.877 320.533 229.71 320.5 229.577 320.3C229.444 320.033 229.41 319.8 229.477 319.6C231.944 317.6 235.377 315.533 239.777 313.4C240.31 313.4 240.577 313.7 240.577 314.3C239.71 315.833 238.844 317.5 237.977 319.3C237.177 321.1 236.444 322.9 235.777 324.7C235.177 326.433 234.677 328.133 234.277 329.8C233.877 331.4 233.677 332.733 233.677 333.8C233.677 335.133 234.144 335.8 235.077 335.8C235.81 335.8 236.51 335.5 237.177 334.9C237.91 334.233 238.744 333.4 239.677 332.4C239.81 332.267 239.977 332.3 240.177 332.5C240.377 332.633 240.41 332.867 240.277 333.2C238.81 334.933 237.344 336.333 235.877 337.4C234.477 338.467 233.11 339 231.777 339C229.444 339 228.277 337.9 228.277 335.7C228.277 334.5 228.444 333.1 228.777 331.5C229.177 329.833 229.677 328.167 230.277 326.5C230.944 324.767 231.644 323.1 232.377 321.5C233.177 319.833 233.977 318.4 234.777 317.2C234.044 317.6 233.21 318.1 232.277 318.7C231.41 319.3 230.677 319.867 230.077 320.4ZM253.379 337.6C252.445 337.933 251.345 338.267 250.079 338.6C248.879 338.867 247.679 339 246.479 339C245.679 339 245.445 338.567 245.779 337.7C246.912 334.9 247.879 331.867 248.679 328.6C249.479 325.267 250.045 322.3 250.379 319.7C250.579 317.367 250.212 316.2 249.279 316.2C248.279 316.2 247.045 316.967 245.579 318.5C245.245 318.633 244.979 318.6 244.779 318.4C244.579 318.2 244.545 317.967 244.679 317.7C245.879 316.5 247.212 315.5 248.679 314.7C250.212 313.833 251.745 313.4 253.279 313.4C254.279 313.4 254.945 313.7 255.279 314.3C255.612 314.9 255.779 315.667 255.779 316.6C255.779 317.867 255.645 319.367 255.379 321.1C255.112 322.833 254.745 324.667 254.279 326.6C253.879 328.467 253.412 330.333 252.879 332.2C252.412 334 251.945 335.633 251.479 337.1C253.345 336.633 255.179 335.767 256.979 334.5C258.845 333.233 260.512 331.767 261.979 330.1C263.445 328.433 264.612 326.633 265.479 324.7C266.412 322.7 266.879 320.7 266.879 318.7C266.879 316.967 266.345 316.1 265.279 316.1C264.679 316.1 264.179 316.233 263.779 316.5C263.445 316.7 263.079 317.1 262.679 317.7C262.479 317.833 262.312 317.8 262.179 317.6C262.045 317.4 262.012 317.2 262.079 317C262.545 316.267 263.345 315.5 264.479 314.7C265.679 313.833 266.912 313.4 268.179 313.4C269.245 313.4 270.045 313.8 270.579 314.6C271.179 315.333 271.479 316.267 271.479 317.4C271.479 319.333 270.979 321.3 269.979 323.3C268.979 325.233 267.645 327.1 265.979 328.9C264.312 330.7 262.379 332.367 260.179 333.9C257.979 335.367 255.712 336.6 253.379 337.6ZM287.847 309.1C287.647 309.3 287.414 309.3 287.147 309.1C286.947 308.9 286.781 308.633 286.647 308.3C286.514 307.9 286.447 307.5 286.447 307.1C286.447 306.633 286.547 306.233 286.747 305.9C287.481 304.967 288.547 303.8 289.947 302.4C291.414 300.933 292.914 299.7 294.447 298.7C294.581 298.633 294.747 298.7 294.947 298.9C295.147 299.033 295.214 299.167 295.147 299.3C293.747 300.567 292.414 302.1 291.147 303.9C289.881 305.633 288.781 307.367 287.847 309.1ZM277.147 320.4C276.947 320.533 276.781 320.5 276.647 320.3C276.514 320.033 276.481 319.8 276.547 319.6C279.014 317.6 282.447 315.533 286.847 313.4C287.381 313.4 287.647 313.7 287.647 314.3C286.781 315.833 285.914 317.5 285.047 319.3C284.247 321.1 283.514 322.9 282.847 324.7C282.247 326.433 281.747 328.133 281.347 329.8C280.947 331.4 280.747 332.733 280.747 333.8C280.747 335.133 281.214 335.8 282.147 335.8C282.881 335.8 283.581 335.5 284.247 334.9C284.981 334.233 285.814 333.4 286.747 332.4C286.881 332.267 287.047 332.3 287.247 332.5C287.447 332.633 287.481 332.867 287.347 333.2C285.881 334.933 284.414 336.333 282.947 337.4C281.547 338.467 280.181 339 278.847 339C276.514 339 275.347 337.9 275.347 335.7C275.347 334.5 275.514 333.1 275.847 331.5C276.247 329.833 276.747 328.167 277.347 326.5C278.014 324.767 278.714 323.1 279.447 321.5C280.247 319.833 281.047 318.4 281.847 317.2C281.114 317.6 280.281 318.1 279.347 318.7C278.481 319.3 277.747 319.867 277.147 320.4ZM319.949 332C320.082 331.867 320.249 331.9 320.449 332.1C320.649 332.233 320.715 332.433 320.649 332.7C319.449 334.367 318.049 335.833 316.449 337.1C314.915 338.367 313.382 339 311.849 339C310.715 339 309.815 338.633 309.149 337.9C308.549 337.167 308.249 336.2 308.249 335C308.249 332.667 308.649 330.133 309.449 327.4C310.315 324.667 311.449 321.9 312.849 319.1C313.049 318.633 313.149 318.133 313.149 317.6C313.149 316.933 312.849 316.6 312.249 316.6C309.782 316.6 307.049 318.3 304.049 321.7C301.049 325.033 298.282 330.367 295.749 337.7C295.682 337.9 295.449 338.1 295.049 338.3C294.715 338.433 294.315 338.567 293.849 338.7C293.382 338.767 292.915 338.833 292.449 338.9C291.982 338.967 291.615 339 291.349 339C291.015 339 290.749 338.933 290.549 338.8C290.415 338.667 290.415 338.433 290.549 338.1C291.682 335.233 292.815 332.1 293.949 328.7C295.149 325.233 296.182 321.767 297.049 318.3C297.249 317.633 297.282 317.167 297.149 316.9C297.015 316.567 296.782 316.4 296.449 316.4C295.715 316.4 295.015 316.733 294.349 317.4C293.682 318 293.082 318.667 292.549 319.4C292.349 319.533 292.149 319.5 291.949 319.3C291.815 319.1 291.782 318.9 291.849 318.7C292.182 318.233 292.615 317.7 293.149 317.1C293.749 316.5 294.415 315.933 295.149 315.4C295.882 314.8 296.649 314.333 297.449 314C298.249 313.6 299.049 313.4 299.849 313.4C300.982 313.4 301.715 313.767 302.049 314.5C302.449 315.167 302.549 316 302.349 317C302.015 318.467 301.649 319.867 301.249 321.2C300.915 322.467 300.482 323.9 299.949 325.5C300.749 324.033 301.715 322.6 302.849 321.2C304.049 319.733 305.349 318.433 306.749 317.3C308.215 316.1 309.782 315.167 311.449 314.5C313.115 313.767 314.882 313.4 316.749 313.4C317.549 313.4 318.149 313.6 318.549 314C319.015 314.4 319.249 314.867 319.249 315.4C319.249 316.333 319.015 317.167 318.549 317.9C317.149 320.433 315.949 323.067 314.949 325.8C314.015 328.467 313.549 330.867 313.549 333C313.549 334.733 314.115 335.6 315.249 335.6C315.982 335.6 316.715 335.3 317.449 334.7C318.182 334.1 319.015 333.2 319.949 332ZM344.875 311.9C345.075 311.767 345.275 311.8 345.475 312C345.675 312.133 345.742 312.3 345.675 312.5C345.142 313.233 344.542 313.9 343.875 314.5C343.209 315.1 342.375 315.467 341.375 315.6C342.309 316.667 342.775 317.967 342.775 319.5C342.775 321.167 342.509 322.633 341.975 323.9C341.509 325.1 340.942 326.233 340.275 327.3C339.609 328.367 338.942 329.367 338.275 330.3C337.609 331.167 337.075 332.067 336.675 333C336.342 333.933 336.209 334.967 336.275 336.1C336.409 337.167 336.942 338.4 337.875 339.8C339.342 342.067 340.409 344.067 341.075 345.8C341.809 347.533 342.175 349.4 342.175 351.4C342.175 353.067 341.775 354.6 340.975 356C340.242 357.467 339.175 358.733 337.775 359.8C336.375 360.933 334.642 361.8 332.575 362.4C330.575 363.067 328.342 363.4 325.875 363.4C320.809 363.4 316.809 362.467 313.875 360.6C310.942 358.733 309.475 356.267 309.475 353.2C309.475 350.867 310.309 348.767 311.975 346.9C313.575 345.1 315.975 343.767 319.175 342.9C319.509 342.9 319.742 343 319.875 343.2C319.942 343.467 319.909 343.7 319.775 343.9C318.309 344.433 317.142 345.233 316.275 346.3C315.409 347.367 314.975 348.767 314.975 350.5C314.975 353.9 316.142 356.633 318.475 358.7C320.809 360.833 323.875 361.9 327.675 361.9C330.875 361.9 333.242 361.067 334.775 359.4C336.309 357.733 337.075 355.633 337.075 353.1C337.075 351.567 336.842 350.2 336.375 349C335.909 347.8 335.242 346.433 334.375 344.9C333.109 342.767 332.542 340.7 332.675 338.7C332.809 336.7 333.475 334.667 334.675 332.6C334.742 332.467 334.775 332.4 334.775 332.4C334.842 332.333 334.909 332.233 334.975 332.1C334.242 332.833 333.442 333.433 332.575 333.9C331.775 334.367 330.975 334.6 330.175 334.6C328.242 334.6 326.742 334.033 325.675 332.9C324.675 331.767 324.175 330.1 324.175 327.9C324.175 326.233 324.542 324.533 325.275 322.8C326.009 321.067 326.942 319.5 328.075 318.1C329.275 316.7 330.609 315.567 332.075 314.7C333.542 313.833 335.042 313.4 336.575 313.4C338.842 313.4 340.609 313.333 341.875 313.2C343.142 313 344.142 312.567 344.875 311.9ZM336.875 328.6C337.275 327.667 337.609 326.7 337.875 325.7C338.142 324.7 338.275 323.667 338.275 322.6C338.275 320.733 337.942 319.233 337.275 318.1C336.675 316.967 335.675 316.4 334.275 316.4C332.542 316.4 331.142 317.167 330.075 318.7C329.075 320.167 328.575 322.5 328.575 325.7C328.575 329.567 329.842 331.5 332.375 331.5C333.109 331.5 333.909 331.233 334.775 330.7C335.642 330.1 336.342 329.4 336.875 328.6Z" fill="#C39873"/>
</g>
<defs>
<radialGradient id="paint0_radial" cx="0" cy="0" r="1" gradientUnits="userSpaceOnUse" gradientTransform="translate(114.43 33.65) scale(493.77)">
<stop stop-color="white" stop-opacity="0.1"/>
<stop offset="1" stop-color="white" stop-opacity="0"/>
</radialGradient>
<clipPath id="clip0">
<rect width="507.74" height="415.42" fill="white"/>
</clipPath>
</defs>
</svg>
